<?xml version="1.0" standalone="no"?>
<!DOCTYPE svg PUBLIC "-//W3C//DTD SVG 20010904//EN"
 "http://www.w3.org/TR/2001/REC-SVG-20010904/DTD/svg10.dtd">
<svg version="1.0" xmlns="http://www.w3.org/2000/svg"
 width="768.000000pt" height="768.000000pt" viewBox="0 0 768.000000 768.000000"
 preserveAspectRatio="xMidYMid meet">
<metadata>
Created by potrace 1.11, written by Peter Selinger 2001-2013
</metadata>
<g transform="translate(0.000000,768.000000) scale(0.100000,-0.100000)"
fill="#000000" stroke="none">
<path d="M3123 6912 l-53 -3 0 -190 0 -189 -192 0 -193 0 0 -192 0 -193 -190
0 -190 0 -1 -1148 c0 -631 3 -1150 8 -1153 4 -3 90 -5 192 -5 l184 -1 -2 -381
-1 -382 -360 -2 c-198 -1 -370 -2 -382 -3 l-23 0 0 -190 0 -190 -189 0 c-142
0 -190 -3 -193 -12 -4 -11 -3 -350 1 -369 0 -3 79 -5 174 -5 94 1 180 0 190
-2 16 -4 17 -21 17 -192 l-1 -187 -172 -1 c-95 0 -182 -1 -194 -1 l-23 -1 0
-189 0 -190 -186 0 c-102 0 -188 -1 -190 -4 -3 -2 -5 -141 -4 -308 0 -167 0
-512 0 -766 l0 -463 2690 0 2690 0 0 498 c1 772 0 1036 -4 1039 -2 2 -87 4
-190 4 l-186 0 0 190 c0 173 -1 189 -17 190 -10 0 -97 0 -195 0 l-176 -1 -1
186 c-1 102 -3 189 -5 193 -3 4 -86 6 -186 6 -104 0 -184 3 -187 9 -7 10 -11
723 -5 744 3 9 51 12 193 12 l189 0 0 163 c1 89 1 262 0 384 l0 222 571 0
c314 0 573 2 576 5 3 3 5 235 5 516 -1 399 1 509 11 503 8 -4 7 -1 -1 10 -9
10 -13 35 -10 67 3 50 3 50 -27 51 -16 0 -276 0 -578 1 l-547 0 1 384 0 384
122 -1 c67 0 154 0 192 0 l70 1 -1 378 c-1 207 -2 380 -3 385 0 4 -87 7 -191
7 l-191 0 1 186 c1 102 -1 188 -4 191 -5 5 -2545 10 -2633 5z m2712 -2314 c3
-3 -5 -5 -17 -4 -13 1 -29 -2 -36 -7 -7 -6 -15 -7 -19 -3 -3 3 -1 6 6 6 7 0
10 4 7 8 -5 9 50 9 59 0z m29 -3 c3 -8 1 -15 -4 -15 -6 0 -10 7 -10 15 0 8 2
15 4 15 2 0 6 -7 10 -15z m76 -20 c0 -3 -4 -3 -10 0 -5 3 -10 2 -10 -4 0 -5 5
-12 10 -14 6 -3 5 -4 -2 -3 -7 1 -14 15 -15 29 -2 24 0 25 13 13 8 -8 14 -17
14 -21z m47 -16 c-1 -10 -5 -19 -10 -19 -5 0 -7 7 -3 15 3 8 -1 21 -9 29 -22
22 -18 32 4 12 11 -10 19 -26 18 -37z m32 29 c-12 -23 -21 -24 -12 -1 4 10 2
14 -5 9 -6 -3 -13 -3 -16 2 -2 4 6 8 19 8 20 0 22 -3 14 -18z m50 5 c-6 -7
-19 -12 -28 -12 -13 1 -13 2 2 6 9 2 15 8 13 12 -3 4 1 8 9 8 11 0 12 -4 4
-14z m78 -34 c-1 -10 -5 -19 -10 -19 -5 0 -7 7 -3 15 3 8 -1 21 -9 29 -22 22
-18 32 4 12 11 -10 19 -26 18 -37z m32 29 c-12 -23 -21 -24 -12 -1 4 10 2 14
-5 9 -6 -3 -13 -3 -16 2 -2 4 6 8 19 8 20 0 22 -3 14 -18z m50 5 c-6 -7 -19
-12 -28 -12 -13 1 -13 2 2 6 9 2 15 8 13 12 -3 4 1 8 9 8 11 0 12 -4 4 -14z
m78 -34 c-1 -10 -5 -19 -10 -19 -5 0 -7 7 -3 15 3 8 -1 21 -9 29 -22 22 -18
32 4 12 11 -10 19 -26 18 -37z m32 29 c-12 -23 -21 -24 -12 -1 4 10 2 14 -5 9
-6 -3 -13 -3 -16 2 -2 4 6 8 19 8 20 0 22 -3 14 -18z m76 5 c15 -9 22 -8 33 5
12 15 12 14 3 -4 -6 -12 -8 -24 -4 -27 7 -7 -15 -30 -45 -46 -14 -7 -22 -8
-22 -1 0 5 5 10 12 10 6 0 19 7 29 16 17 16 17 17 -4 34 -15 13 -26 15 -34 8
-7 -5 -18 -8 -25 -5 -8 3 -6 6 5 6 10 1 16 5 13 10 -8 12 13 9 39 -6z m85 11
c0 -8 -19 -13 -24 -6 -3 5 1 9 9 9 8 0 15 -2 15 -3z m-13 -47 c-73 -69 -101
-93 -93 -79 4 6 3 12 -3 12 -18 0 -21 -17 -6 -30 12 -10 23 -3 64 37 27 27 58
55 68 63 23 18 -19 -31 -74 -85 l-42 -41 -25 21 c-24 21 -24 21 -5 33 11 7 23
11 27 8 4 -2 25 14 47 35 22 21 34 39 28 39 -7 0 -13 5 -13 11 0 8 4 8 13 1
14 -12 52 10 39 23 -4 5 -1 5 6 1 9 -6 0 -20 -31 -49z m-587 23 c0 -5 -2 -10
-4 -10 -3 0 -8 5 -11 10 -3 6 -1 10 4 10 6 0 11 -4 11 -10z m200 -1 c0 -5 -4
-7 -10 -4 -5 3 -10 2 -10 -4 0 -5 5 -11 12 -13 8 -3 7 -6 -4 -10 -11 -5 -15
-1 -13 15 3 27 3 27 15 27 6 0 10 -5 10 -11z m160 0 c0 -5 -4 -7 -10 -4 -5 3
-10 2 -10 -4 0 -5 5 -11 12 -13 8 -3 7 -6 -4 -10 -11 -5 -15 -1 -13 15 3 27 3
27 15 27 6 0 10 -5 10 -11z m-377 -101 c-2 -5 1 -8 6 -8 6 0 11 -5 11 -11 0
-5 -4 -8 -9 -4 -5 3 -11 0 -14 -7 -2 -7 -3 -5 -1 6 2 11 -15 37 -41 65 -25 25
-45 41 -45 35 0 -6 14 -25 30 -43 17 -17 26 -31 22 -31 -12 0 -52 -39 -52 -50
0 -16 18 -11 23 5 4 12 5 11 3 -1 -2 -28 -22 -27 -41 3 -10 15 -12 23 -6 17 9
-8 18 -6 36 9 l23 21 -23 31 c-32 43 -40 60 -27 51 7 -4 12 -3 12 3 0 5 22
-11 48 -37 27 -26 47 -50 45 -54z m-53 92 c0 -5 -2 -10 -4 -10 -3 0 -8 5 -11
10 -3 6 -1 10 4 10 6 0 11 -4 11 -10z m127 -12 c-3 -8 -6 -5 -6 6 -1 11 2 17
5 13 3 -3 4 -12 1 -19z m160 0 c-3 -8 -6 -5 -6 6 -1 11 2 17 5 13 3 -3 4 -12
1 -19z m160 0 c-3 -8 -6 -5 -6 6 -1 11 2 17 5 13 3 -3 4 -12 1 -19z m127 -8
c-6 -6 -10 -2 -11 12 -2 16 1 18 10 9 7 -7 8 -14 1 -21z m-486 -45 c4 3 0 11
-8 16 -13 9 -13 10 0 6 8 -2 16 -14 16 -26 1 -23 150 -178 166 -174 4 2 8 -2
8 -7 0 -21 -18 -8 -103 75 -48 47 -85 85 -81 85 3 0 -9 12 -28 27 -35 29 -48
44 -48 55 0 3 16 -9 36 -29 20 -19 39 -32 42 -28z m-38 55 c0 -5 -2 -10 -4
-10 -3 0 -8 5 -11 10 -3 6 -1 10 4 10 6 0 11 -4 11 -10z m150 0 c-8 -5 -19
-10 -25 -10 -5 0 -3 5 5 10 8 5 20 10 25 10 6 0 3 -5 -5 -10z m26 -15 c-3 -9
-10 -14 -15 -11 -5 4 -12 -1 -14 -9 -3 -11 -4 -10 -3 2 1 10 8 17 14 16 7 -2
12 5 12 14 0 9 3 14 6 10 4 -3 4 -13 0 -22z m134 15 c-8 -5 -19 -10 -25 -10
-5 0 -3 5 5 10 8 5 20 10 25 10 6 0 3 -5 -5 -10z m26 -15 c-3 -9 -10 -14 -15
-11 -5 4 -12 -1 -14 -9 -3 -11 -4 -10 -3 2 1 10 8 17 14 16 7 -2 12 5 12 14 0
9 3 14 6 10 4 -3 4 -13 0 -22z m134 15 c-8 -5 -19 -10 -25 -10 -5 0 -3 5 5 10
8 5 20 10 25 10 6 0 3 -5 -5 -10z m26 -15 c-3 -9 -10 -14 -15 -11 -5 4 -12 -1
-14 -9 -3 -11 -4 -10 -3 2 1 10 8 17 14 16 7 -2 12 5 12 14 0 9 3 14 6 10 4
-3 4 -13 0 -22z m-471 5 c3 -5 1 -10 -4 -10 -6 0 -11 5 -11 10 0 6 2 10 4 10
3 0 8 -4 11 -10z m45 -20 c0 -5 -2 -10 -4 -10 -3 0 -8 5 -11 10 -3 6 -1 10 4
10 6 0 11 -4 11 -10z m56 -12 c-1 -22 -26 -39 -26 -18 0 6 5 8 10 5 6 -3 10
-1 10 4 0 6 -6 11 -12 11 -9 0 -8 4 2 10 8 5 16 10 16 10 1 0 1 -10 0 -22z
m104 12 c0 -5 -2 -10 -4 -10 -3 0 -8 5 -11 10 -3 6 -1 10 4 10 6 0 11 -4 11
-10z m56 -12 c-1 -22 -26 -39 -26 -18 0 6 5 8 10 5 6 -3 10 -1 10 4 0 6 -6 11
-12 11 -9 0 -8 4 2 10 8 5 16 10 16 10 1 0 1 -10 0 -22z m104 12 c0 -5 -2 -10
-4 -10 -3 0 -8 5 -11 10 -3 6 -1 10 4 10 6 0 11 -4 11 -10z m56 -12 c-1 -22
-26 -39 -26 -18 0 6 5 8 10 5 6 -3 10 -1 10 4 0 6 -6 11 -12 11 -9 0 -8 4 2
10 8 5 16 10 16 10 1 0 1 -10 0 -22z m200 2 c0 -10 -2 -17 -4 -15 -2 2 -10 -2
-17 -8 -9 -8 -10 -16 -3 -24 7 -9 7 -13 -1 -13 -6 0 -11 6 -11 13 0 6 -19 -7
-41 -30 -22 -24 -44 -43 -47 -43 -4 0 -27 18 -51 40 -24 22 -39 40 -34 40 5 0
19 9 31 20 12 12 22 16 22 11 0 -6 -10 -15 -22 -22 -21 -11 -20 -12 16 -46
l37 -36 62 66 c34 36 62 66 62 66 1 1 1 -8 1 -19z m-559 -12 c-5 -17 7 -34 53
-81 33 -32 60 -63 60 -68 0 -5 5 -9 10 -9 6 0 9 5 8 12 -2 6 4 13 12 13 8 1 9
0 2 -2 -7 -3 -10 -8 -7 -13 3 -5 1 -11 -4 -14 -11 -7 -152 130 -143 139 3 3 0
5 -6 5 -7 0 -12 5 -12 11 0 5 5 7 10 4 6 -3 10 1 10 9 0 9 3 16 6 16 4 0 4
-10 1 -22z m117 -12 c-1 -21 2 -26 15 -21 12 5 13 3 4 -6 -13 -13 -37 -3 -28
12 7 10 -8 12 -18 2 -9 -9 23 -44 34 -37 5 3 9 0 9 -5 0 -17 -13 -13 -42 12
l-27 24 24 13 c14 7 25 17 25 22 0 5 -4 6 -10 3 -5 -3 -10 -1 -10 5 0 7 6 10
13 7 6 -2 11 -16 11 -31z m44 10 c-2 -22 -28 -27 -28 -4 0 5 5 6 10 3 6 -3 10
1 10 9 0 9 2 16 5 16 3 0 4 -11 3 -24z m118 -5 c2 -27 155 -182 161 -163 3 6
9 12 15 12 6 0 6 -6 -2 -15 -7 -8 -16 -15 -19 -15 -14 0 -169 158 -163 166 4
4 -2 4 -13 1 -19 -7 -19 -6 -2 7 18 14 24 32 7 21 -5 -3 -10 -1 -10 5 0 22 25
3 26 -19z m41 7 c-5 -17 7 -34 54 -81 l60 -60 40 43 c22 23 43 40 46 36 3 -3
15 -1 27 5 19 9 19 9 4 -4 -16 -12 -16 -16 -2 -35 8 -12 11 -22 6 -22 -5 0
-15 11 -22 25 -14 26 -14 26 -33 6 -20 -20 -20 -20 15 -55 19 -19 37 -33 40
-31 2 2 4 -4 4 -14 0 -13 -12 -5 -42 28 l-43 46 -21 -21 -21 -20 -63 60 c-34
34 -61 64 -59 69 2 4 -1 7 -6 7 -6 0 -11 5 -11 11 0 5 5 7 10 4 6 -3 10 1 10
9 0 9 3 16 6 16 4 0 4 -10 1 -22z m-255 -17 l-23 -17 34 -31 c19 -18 37 -30
39 -28 2 2 4 -4 5 -13 1 -13 -13 -4 -46 28 l-48 45 24 15 c12 8 23 19 23 24 0
5 3 6 7 2 4 -4 -3 -15 -15 -25z m178 19 c0 -5 -10 -15 -22 -21 l-23 -12 20 21
c23 24 25 25 25 12z m-431 -16 c-12 -15 -11 -16 11 -10 21 6 22 5 7 -4 -9 -6
-21 -8 -27 -5 -11 7 -2 35 12 35 6 0 4 -7 -3 -16z m401 -36 c0 -5 -4 -6 -10
-3 -5 3 -10 2 -10 -4 0 -5 5 -12 10 -14 6 -3 5 -4 -2 -3 -7 1 -13 12 -14 23
-1 14 3 20 12 16 8 -3 14 -9 14 -15z m40 0 c0 -5 -4 -7 -9 -3 -5 3 -12 -3 -14
-12 -3 -10 -4 -6 -4 8 1 18 6 25 14 22 7 -3 13 -9 13 -15z m-360 1 c0 -5 -4
-7 -10 -4 -5 3 -10 2 -10 -4 0 -5 5 -11 12 -13 8 -3 7 -6 -4 -10 -11 -5 -15
-1 -13 15 3 27 3 27 15 27 6 0 10 -5 10 -11z m268 -3 c-7 -8 -15 -12 -17 -11
-5 6 10 25 20 25 5 0 4 -6 -3 -14z m-178 -53 c-1 -10 -39 39 -40 51 0 5 9 -3
20 -17 11 -14 20 -29 20 -34z m320 0 c-1 -10 -39 39 -40 51 0 5 9 -3 20 -17
11 -14 20 -29 20 -34z m-126 32 c3 -8 1 -15 -4 -15 -6 0 -10 7 -10 15 0 8 2
15 4 15 2 0 6 -7 10 -15z m-239 -5 c3 -5 1 -10 -4 -10 -6 0 -11 5 -11 10 0 6
2 10 4 10 3 0 8 -4 11 -10z m320 0 c3 -5 1 -10 -4 -10 -6 0 -11 5 -11 10 0 6
2 10 4 10 3 0 8 -4 11 -10z m-112 -20 c-3 -12 -8 -19 -11 -16 -5 6 5 36 12 36
2 0 2 -9 -1 -20z m-246 -10 c-1 -11 -5 -20 -9 -20 -3 0 -6 9 -5 20 1 11 5 20
9 20 3 0 6 -9 5 -20z m320 0 c-1 -11 -5 -20 -9 -20 -3 0 -6 9 -5 20 1 11 5 20
9 20 3 0 6 -9 5 -20z m-347 0 c0 -5 -2 -10 -4 -10 -3 0 -8 5 -11 10 -3 6 -1
10 4 10 6 0 11 -4 11 -10z m47 -12 c-3 -8 -6 -5 -6 6 -1 11 2 17 5 13 3 -3 4
-12 1 -19z m37 -11 c-1 -15 3 -27 7 -27 5 0 9 -5 9 -11 0 -5 -5 -7 -12 -3 -8
5 -9 2 -5 -9 3 -10 2 -17 -4 -17 -6 0 -8 13 -5 30 2 17 0 30 -5 30 -5 0 -9 5
-9 11 0 5 5 7 10 4 6 -3 10 -2 10 4 0 5 -5 12 -10 14 -6 3 -5 4 2 3 7 -2 13
-15 12 -29z m51 23 c3 -5 1 -10 -4 -10 -6 0 -11 5 -11 10 0 6 2 10 4 10 3 0 8
-4 11 -10z m175 0 c-18 -12 -30 -13 -30 -2 0 4 10 9 22 9 18 2 20 0 8 -7z m57
-12 c-3 -8 -6 -5 -6 6 -1 11 2 17 5 13 3 -3 4 -12 1 -19z m37 -11 c-1 -15 3
-27 7 -27 5 0 9 -5 9 -11 0 -5 -4 -8 -9 -5 -5 3 -8 -5 -8 -19 0 -28 14 -23 27
9 6 14 9 16 9 5 1 -9 -8 -26 -19 -39 -34 -39 -22 -47 14 -10 24 25 31 39 24
48 -7 8 -7 12 1 12 6 0 11 -5 11 -11 0 -5 6 -7 13 -3 6 4 1 -6 -13 -22 -39
-45 -62 -64 -71 -59 -4 3 -9 0 -12 -7 -2 -7 -3 -6 -2 2 2 8 6 24 10 35 6 15 1
13 -20 -9 -22 -22 -25 -30 -14 -37 8 -5 10 -9 4 -9 -5 0 -16 4 -24 9 -11 7 -7
15 19 38 23 21 33 38 34 66 2 20 -1 37 -6 37 -4 0 -8 5 -8 11 0 5 5 7 10 4 6
-3 10 -2 10 4 0 5 -5 12 -10 14 -6 3 -5 4 2 3 7 -2 13 -15 12 -29z m51 23 c3
-5 1 -10 -4 -10 -6 0 -11 5 -11 10 0 6 2 10 4 10 3 0 8 -4 11 -10z m203 -10
c7 -12 16 -19 21 -16 4 3 8 -1 8 -8 0 -11 -4 -11 -17 -4 -20 13 -44 48 -32 48
4 0 13 -9 20 -20z m-630 -25 c9 1 11 0 4 -2 -7 -3 -10 -9 -7 -14 4 -5 1 -9 -4
-9 -6 0 -11 5 -11 12 0 6 -3 8 -6 5 -4 -4 -15 3 -25 15 -26 29 -24 33 6 10 14
-11 33 -19 43 -17z m-68 5 c12 -12 15 -20 7 -20 -7 0 -18 9 -25 20 -7 11 -10
20 -7 20 3 0 14 -9 25 -20z m155 10 c3 -5 1 -10 -4 -10 -6 0 -11 5 -11 10 0 6
2 10 4 10 3 0 8 -4 11 -10z m195 -10 c-6 -11 -15 -20 -20 -20 -6 0 -2 9 7 20
10 11 19 20 21 20 1 0 -2 -9 -8 -20z m125 10 c3 -5 1 -10 -4 -10 -6 0 -11 5
-11 10 0 6 2 10 4 10 3 0 8 -4 11 -10z m-285 -12 c0 -6 3 -9 6 -5 3 3 23 -12
43 -34 21 -21 40 -37 42 -34 3 2 5 -5 6 -15 2 -17 -2 -16 -22 8 l-24 27 -42
-42 c-23 -24 -45 -43 -49 -43 -5 0 12 21 38 46 l46 47 -22 17 c-12 10 -30 17
-39 16 -10 -2 -12 -1 -5 1 7 3 10 9 7 14 -4 5 -1 9 4 9 6 0 11 -5 11 -12z
m320 0 c0 -6 3 -9 6 -5 3 3 24 -13 46 -36 22 -23 44 -41 49 -39 5 1 9 -2 9 -8
0 -16 -12 -12 -37 12 l-24 22 -40 -42 c-23 -23 -45 -42 -49 -42 -5 0 12 21 38
46 l46 47 -22 17 c-12 10 -30 17 -39 16 -10 -2 -12 -1 -5 1 7 3 10 9 7 14 -4
5 -1 9 4 9 6 0 11 -5 11 -12z m-113 -5 c-9 -2 -15 -9 -12 -14 4 -5 2 -9 -3 -9
-6 0 -12 6 -15 13 -3 8 4 13 22 14 14 0 18 -1 8 -4z m269 -18 c14 -14 21 -25
16 -25 -4 0 -18 -9 -30 -20 -12 -12 -22 -16 -22 -11 0 6 9 15 21 22 l21 11
-23 24 c-30 32 -15 31 17 -1z m-566 -5 c0 -5 -2 -10 -4 -10 -3 0 -8 5 -11 10
-3 6 -1 10 4 10 6 0 11 -4 11 -10z m245 -20 c-9 -17 -20 -28 -25 -25 -5 3 -11
-3 -14 -12 -4 -14 -4 -14 -3 2 1 11 7 19 12 18 6 -1 16 9 23 23 7 13 15 24 18
24 2 0 -3 -14 -11 -30z m75 20 c0 -5 -2 -10 -4 -10 -3 0 -8 5 -11 10 -3 6 -1
10 4 10 6 0 11 -4 11 -10z m-376 -59 c-2 -2 -13 4 -24 14 -28 26 -25 4 5 -31
14 -16 25 -33 25 -39 0 -5 -9 1 -20 15 -29 36 -62 92 -50 85 5 -3 10 -2 10 4
0 6 13 -2 29 -17 15 -15 27 -29 25 -31z m-14 49 c0 -5 -2 -10 -4 -10 -3 0 -8
5 -11 10 -3 6 -1 10 4 10 6 0 11 -4 11 -10z m130 -3 c0 -8 -9 -24 -19 -36
l-20 -23 -30 31 c-34 35 -30 43 6 10 18 -18 25 -20 38 -9 8 7 15 19 15 26 0 8
2 14 5 14 3 0 5 -6 5 -13z m30 2 c0 -5 6 -7 13 -3 6 4 1 -6 -13 -22 -31 -35
-61 -64 -68 -64 -7 0 50 63 61 68 4 2 3 10 -4 18 -8 10 -8 14 0 14 6 0 11 -5
11 -11z m140 7 c0 -3 -4 -8 -10 -11 -5 -3 -10 -1 -10 4 0 6 5 11 10 11 6 0 10
-2 10 -4z m-225 -90 c0 -17 -28 -13 -32 4 -4 13 -3 13 6 0 5 -8 12 -12 16 -9
3 3 -8 21 -25 40 -16 19 -30 38 -30 43 0 5 15 -8 33 -29 17 -21 32 -43 32 -49z
m281 68 c-11 -8 -25 -14 -30 -13 -6 0 -5 3 2 6 6 2 10 8 8 12 -3 4 5 8 17 8
21 2 22 1 3 -13z m248 1 c-10 -8 -23 -15 -28 -15 -6 0 -1 7 10 15 10 8 23 15
28 15 6 0 1 -7 -10 -15z m-214 2 c0 -9 -38 -46 -65 -62 -22 -14 -18 -7 15 23
44 41 50 45 50 39z m295 -27 c21 -23 11 -27 -12 -5 -8 9 -18 13 -21 10 -4 -3
-1 -10 7 -14 10 -7 10 -9 -2 -14 -10 -4 -14 1 -12 16 1 12 3 23 4 25 4 7 20
-1 36 -18z m-489 -29 c-20 -21 -24 -30 -14 -34 9 -4 7 -6 -4 -6 -10 -1 -18 2
-18 7 0 11 44 62 54 62 6 0 -3 -13 -18 -29z m134 25 c0 -3 -4 -8 -10 -11 -5
-3 -10 -1 -10 4 0 6 5 11 10 11 6 0 10 -2 10 -4z m186 -25 c-20 -21 -24 -30
-14 -34 9 -4 7 -6 -4 -6 -10 -1 -18 2 -18 7 0 11 44 62 54 62 6 0 -3 -13 -18
-29z m110 4 c-3 -9 -10 -14 -15 -11 -5 4 -12 1 -14 -4 -3 -6 -4 -5 -2 2 1 7 8
12 14 11 6 -2 11 5 11 14 0 9 3 14 6 10 4 -3 4 -13 0 -22z m-326 5 c0 -5 -10
-15 -22 -21 l-23 -12 20 21 c23 24 25 25 25 12z m-345 -10 c-3 -5 -11 -10 -16
-10 -6 0 -7 5 -4 10 3 6 11 10 16 10 6 0 7 -4 4 -10z m75 0 c0 -5 -2 -10 -4
-10 -3 0 -8 5 -11 10 -3 6 -1 10 4 10 6 0 11 -4 11 -10z m210 1 c0 -5 7 -17
16 -25 8 -9 11 -16 6 -16 -5 0 -17 11 -26 25 -9 14 -12 25 -6 25 5 0 10 -4 10
-9z m320 -2 c0 -5 4 -8 8 -5 4 2 9 -4 9 -15 2 -25 -1 -24 -21 6 -9 14 -12 25
-6 25 5 0 10 -5 10 -11z m120 -10 c0 -5 5 -7 12 -3 7 4 8 3 4 -4 -10 -16 -23
-15 -30 3 -3 8 -1 15 4 15 6 0 10 -5 10 -11z m-704 -8 c-4 -5 -1 -12 4 -14 6
-3 5 -4 -2 -3 -15 3 -23 26 -8 26 6 0 9 -4 6 -9z m240 0 c-4 -5 -1 -12 4 -14
6 -3 5 -4 -2 -3 -15 3 -23 26 -8 26 6 0 9 -4 6 -9z m320 0 c-4 -5 -1 -12 4
-14 6 -3 5 -4 -2 -3 -15 3 -23 26 -8 26 6 0 9 -4 6 -9z m104 -1 c-8 -5 -19
-10 -25 -10 -5 0 -3 5 5 10 8 5 20 10 25 10 6 0 3 -5 -5 -10z m-335 -18 c-3
-3 -11 0 -18 7 -9 10 -8 11 6 5 10 -3 15 -9 12 -12z"/>
</g>
</svg>
